<svg id="svg" version="1.1" xmlns="http://www.w3.org/2000/svg" xmlns:xlink="http://www.w3.org/1999/xlink" width="400" height="400" viewBox="0, 0, 400,400"><g id="svgg"><path id="path0" d="M169.336 89.398 C 154.935 95.602,142.710 107.289,136.178 121.094 C 111.156 173.975,164.368 230.960,218.359 209.103 C 222.020 207.621,228.516 204.023,228.516 203.477 C 228.516 202.872,220.718 186.915,220.427 186.923 C 220.257 186.928,218.482 187.769,216.483 188.793 C 184.602 205.118,148.283 182.223,149.723 146.708 C 150.477 128.107,163.169 111.246,180.078 106.382 C 181.260 106.042,182.297 105.700,182.384 105.622 C 182.579 105.445,174.096 87.505,173.828 87.529 C 173.721 87.539,171.699 88.380,169.336 89.398 M181.825 109.942 C 179.845 110.694,175.487 112.728,175.074 113.092 C 174.975 113.179,179.165 121.820,179.478 122.174 C 179.528 122.231,181.398 121.399,183.632 120.324 C 185.867 119.250,187.915 118.368,188.184 118.365 C 188.850 118.357,188.936 118.593,186.426 113.554 L 184.180 109.047 181.825 109.942 M171.094 115.599 C 169.697 116.628,167.764 118.180,166.797 119.047 L 165.039 120.623 167.370 125.351 C 168.652 127.951,169.767 130.078,169.849 130.078 C 169.931 130.078,171.167 129.001,172.596 127.685 C 174.026 126.368,175.854 124.851,176.660 124.312 C 178.491 123.089,178.521 123.317,175.859 118.094 L 173.633 113.727 171.094 115.599 M184.390 121.508 C 182.142 122.588,180.255 123.521,180.196 123.580 C 179.831 123.945,185.606 134.778,186.034 134.530 C 186.303 134.374,186.973 133.936,187.522 133.557 C 188.072 133.177,189.796 132.227,191.354 131.445 C 192.912 130.663,194.133 129.887,194.066 129.721 C 192.979 127.008,189.167 119.533,188.873 119.537 C 188.655 119.540,186.638 120.427,184.390 121.508 M161.495 124.977 C 160.221 126.693,158.574 129.227,157.834 130.608 L 156.488 133.118 158.424 137.106 L 160.360 141.094 163.543 137.246 C 165.293 135.130,167.163 132.990,167.697 132.490 L 168.668 131.582 166.526 127.021 C 165.348 124.513,164.255 122.325,164.097 122.159 C 163.939 121.992,162.768 123.260,161.495 124.977 M176.367 126.241 C 175.293 127.135,173.516 128.730,172.418 129.784 L 170.422 131.701 173.136 137.237 C 174.628 140.282,175.921 142.846,176.009 142.935 C 176.097 143.023,177.268 142.053,178.612 140.778 C 179.955 139.503,181.819 137.836,182.753 137.073 L 184.451 135.687 181.676 130.148 C 178.505 123.819,178.914 124.120,176.367 126.241 M193.750 131.751 C 192.594 132.249,186.328 135.934,186.328 136.115 C 186.328 136.184,187.634 138.973,189.231 142.313 L 192.133 148.386 195.816 145.924 C 197.842 144.569,199.711 143.391,199.970 143.304 C 200.275 143.202,199.442 141.085,197.583 137.239 C 194.769 131.416,194.712 131.335,193.750 131.751 M167.751 134.441 C 165.407 137.004,161.329 142.084,161.322 142.450 C 161.311 143.001,166.523 153.906,166.797 153.906 C 166.939 153.906,167.653 153.071,168.385 152.051 C 169.116 151.030,170.908 148.839,172.367 147.182 L 175.019 144.168 172.159 138.458 L 169.299 132.749 167.751 134.441 M154.969 137.207 C 153.976 140.377,153.125 145.888,153.125 149.144 L 153.125 152.092 156.283 147.263 L 159.442 142.433 157.748 138.812 C 155.755 134.551,155.794 134.573,154.969 137.207 M181.993 139.599 C 180.403 140.969,178.552 142.683,177.879 143.408 L 176.657 144.727 179.668 150.827 L 182.679 156.928 184.992 154.723 C 186.264 153.510,188.144 151.812,189.171 150.950 L 191.036 149.382 188.094 143.246 C 186.476 139.871,185.092 137.109,185.019 137.109 C 184.945 137.109,183.584 138.230,181.993 139.599 M159.348 145.032 C 159.010 145.508,157.546 147.802,156.093 150.128 L 153.451 154.358 154.113 157.355 C 154.797 160.447,156.466 165.375,157.494 167.338 L 158.080 168.455 159.756 165.380 C 160.678 163.689,162.375 160.848,163.528 159.069 C 166.079 155.131,166.146 156.306,163.002 149.730 C 160.091 143.641,160.217 143.803,159.348 145.032 M198.242 145.999 C 194.512 148.335,192.979 149.397,192.974 149.647 C 192.971 149.775,194.288 152.631,195.900 155.993 L 198.831 162.106 202.224 159.546 C 204.091 158.138,205.854 156.855,206.142 156.693 C 206.642 156.413,201.435 144.531,200.813 144.531 C 200.688 144.532,199.531 145.192,198.242 145.999 M172.037 149.784 C 166.846 156.020,167.003 154.664,170.632 161.989 L 173.758 168.299 175.118 166.251 C 175.866 165.124,177.623 162.831,179.022 161.154 L 181.566 158.107 179.518 153.760 C 178.391 151.370,177.031 148.556,176.495 147.507 L 175.520 145.600 172.037 149.784 M188.381 153.469 C 186.715 154.947,184.890 156.661,184.326 157.278 L 183.301 158.398 186.395 164.824 L 189.489 171.249 193.587 167.150 L 197.686 163.051 194.759 156.916 C 193.149 153.542,191.737 150.781,191.621 150.781 C 191.506 150.781,190.048 151.991,188.381 153.469 M165.037 159.201 C 162.879 162.562,158.984 169.628,158.984 170.182 C 158.984 171.308,166.842 180.622,167.313 180.054 C 167.391 179.960,168.665 177.552,170.146 174.704 L 172.837 169.525 169.683 163.202 L 166.528 156.878 165.037 159.201 M203.199 160.583 C 201.199 162.098,199.617 163.479,199.684 163.653 C 199.750 163.827,201.098 166.695,202.680 170.027 L 205.555 176.086 208.663 173.577 C 210.372 172.197,212.085 170.871,212.470 170.631 C 213.145 170.210,208.106 158.217,207.129 157.918 C 206.968 157.869,205.199 159.068,203.199 160.583 M179.788 162.453 C 177.093 165.744,174.609 169.300,174.609 169.868 C 174.609 170.070,176.041 173.158,177.790 176.730 L 180.972 183.224 182.902 180.210 C 183.964 178.553,185.609 176.189,186.557 174.956 C 188.692 172.182,188.824 173.117,185.254 165.735 L 182.227 159.477 179.788 162.453 M194.168 168.527 L 190.120 172.589 193.235 179.013 L 196.350 185.438 200.373 181.175 L 204.396 176.911 201.571 170.975 C 200.017 167.710,198.626 164.910,198.480 164.752 C 198.335 164.595,196.394 166.293,194.168 168.527 M172.986 172.310 C 172.639 172.840,171.457 175.063,170.359 177.251 L 168.363 181.228 170.412 182.767 C 172.361 184.232,177.997 187.483,178.608 187.495 C 178.766 187.498,179.155 186.881,179.471 186.124 C 180.327 184.074,174.046 170.693,172.986 172.310 M211.914 172.746 C 211.055 173.426,209.442 174.741,208.330 175.668 L 206.309 177.354 208.478 181.939 C 209.671 184.460,210.698 186.583,210.761 186.655 C 210.867 186.777,217.062 183.658,218.326 182.846 C 218.838 182.518,214.322 171.522,213.672 171.513 C 213.564 171.512,212.773 172.067,211.914 172.746 M187.200 176.454 C 186.127 177.910,184.434 180.367,183.438 181.913 L 181.629 184.725 182.695 186.898 C 183.953 189.464,184.627 189.758,190.039 190.101 L 193.555 190.324 194.473 188.613 L 195.391 186.903 192.272 180.354 L 189.153 173.806 187.200 176.454 M201.101 182.433 C 196.858 186.999,196.987 186.754,197.840 188.647 L 198.503 190.116 200.521 189.761 C 203.339 189.265,209.420 187.427,209.289 187.110 C 208.183 184.452,205.239 178.516,205.027 178.516 C 204.870 178.516,203.104 180.278,201.101 182.433 M180.306 187.361 C 180.018 188.112,180.012 188.104,181.157 188.456 C 181.985 188.710,182.011 188.665,181.582 187.723 C 181.054 186.563,180.655 186.450,180.306 187.361 M195.550 189.290 C 195.206 190.186,195.234 190.234,196.094 190.234 C 196.523 190.234,196.875 190.161,196.875 190.071 C 196.875 189.595,196.360 188.672,196.094 188.672 C 195.925 188.672,195.680 188.950,195.550 189.290 M298.482 310.403 C 296.905 311.508,297.651 313.672,299.609 313.672 C 300.848 313.672,301.563 313.018,301.563 311.884 C 301.563 310.385,299.752 309.514,298.482 310.403 M269.531 318.164 L 269.531 326.172 271.094 326.172 L 272.656 326.172 272.656 318.164 L 272.656 310.156 271.094 310.156 L 269.531 310.156 269.531 318.164 M63.981 311.324 C 55.434 313.900,57.918 326.409,66.964 326.345 C 72.041 326.309,72.094 326.257,71.947 321.532 L 71.823 317.578 69.115 317.578 L 66.407 317.578 66.504 318.945 C 66.590 320.151,66.727 320.311,67.676 320.312 C 68.954 320.313,69.345 323.126,68.132 323.591 C 64.469 324.997,61.080 319.894,63.093 316.003 C 64.188 313.884,67.576 313.073,70.410 314.252 C 70.988 314.493,71.094 314.317,71.094 313.118 C 71.094 311.094,67.637 310.222,63.981 311.324 M104.492 311.672 C 96.295 315.436,100.551 327.536,109.690 326.448 C 113.645 325.977,113.672 325.943,113.672 321.494 L 113.672 317.578 110.938 317.578 L 108.203 317.578 108.203 318.945 C 108.203 320.204,108.296 320.313,109.375 320.313 C 111.254 320.313,111.163 323.286,109.273 323.641 C 104.213 324.590,101.711 316.605,106.321 314.221 C 107.543 313.589,110.259 313.605,111.816 314.252 C 112.394 314.493,112.500 314.317,112.500 313.118 C 112.500 310.866,108.012 310.056,104.492 311.672 M245.855 311.555 C 242.129 313.393,242.923 317.979,247.240 319.553 C 250.013 320.564,251.142 321.604,250.529 322.581 C 249.626 324.021,247.348 324.110,244.043 322.836 C 243.470 322.615,243.359 322.799,243.359 323.968 C 243.359 325.682,244.130 326.174,247.261 326.458 C 254.832 327.145,256.862 319.767,249.841 317.077 C 247.223 316.073,246.448 315.243,247.238 314.291 C 247.824 313.585,250.545 313.453,252.123 314.053 C 253.080 314.417,253.125 314.373,253.125 313.067 C 253.125 310.966,248.849 310.078,245.855 311.555 M167.383 318.750 L 167.383 326.172 172.363 326.172 L 177.344 326.172 177.344 324.805 L 177.344 323.438 174.023 323.438 L 170.703 323.438 170.703 321.680 L 170.703 319.922 173.395 319.922 L 176.086 319.922 176.246 318.555 L 176.406 317.188 173.554 317.188 L 170.703 317.188 170.703 315.641 L 170.703 314.094 173.926 313.981 L 177.148 313.867 177.271 312.598 L 177.393 311.328 172.388 311.328 L 167.383 311.328 167.383 318.750 M88.574 312.228 C 87.258 312.596,87.109 312.769,87.109 313.936 C 87.109 315.038,86.971 315.234,86.191 315.234 C 84.892 315.234,84.892 317.708,86.191 317.893 C 86.961 318.003,87.042 318.285,87.168 321.270 C 87.355 325.729,88.737 327.077,92.413 326.387 C 94.548 325.987,94.438 323.633,92.285 323.633 L 90.820 323.633 90.706 320.801 L 90.591 317.969 91.975 317.969 C 93.297 317.969,93.359 317.907,93.359 316.602 C 93.359 315.299,93.294 315.234,91.992 315.234 C 90.632 315.234,90.625 315.225,90.625 313.477 C 90.625 312.510,90.493 311.741,90.332 311.768 C 90.171 311.795,89.380 312.002,88.574 312.228 M291.016 312.269 C 289.895 312.672,289.626 312.983,289.526 313.997 C 289.435 314.918,289.210 315.234,288.647 315.234 C 288.043 315.234,287.891 315.510,287.891 316.602 C 287.891 317.677,288.047 317.969,288.622 317.969 C 289.259 317.969,289.376 318.364,289.532 321.061 C 289.798 325.660,291.171 327.060,294.757 326.387 C 295.960 326.162,296.094 326.007,296.094 324.841 C 296.094 323.669,296.000 323.564,295.115 323.733 C 293.494 324.043,292.969 323.241,292.969 320.460 L 292.969 317.969 294.336 317.969 C 295.638 317.969,295.703 317.904,295.703 316.602 C 295.703 315.299,295.638 315.234,294.336 315.234 C 292.976 315.234,292.969 315.225,292.969 313.477 C 292.969 311.552,292.985 311.562,291.016 312.269 M76.686 315.603 C 72.606 317.455,72.792 324.266,76.969 325.937 C 80.179 327.222,83.594 326.447,83.594 324.434 L 83.594 323.123 81.934 323.612 C 80.048 324.167,78.204 323.827,77.442 322.785 C 76.580 321.605,76.885 321.484,80.717 321.484 L 84.481 321.484 84.230 319.654 C 83.664 315.525,80.546 313.851,76.686 315.603 M120.108 315.794 C 118.902 317.000,118.591 317.056,118.863 316.016 C 119.045 315.322,118.875 315.234,117.346 315.234 L 115.625 315.234 115.625 320.703 L 115.625 326.172 117.383 326.172 L 119.141 326.172 119.141 322.717 C 119.141 318.712,119.740 317.679,121.823 318.095 C 122.945 318.320,122.963 318.296,122.908 316.681 C 122.837 314.613,121.662 314.240,120.108 315.794 M126.961 315.506 C 121.924 318.118,123.199 325.690,128.801 326.442 C 131.618 326.820,133.594 325.972,133.594 324.385 C 133.594 323.129,133.530 323.054,132.792 323.449 C 131.518 324.130,128.974 324.010,128.109 323.228 C 126.556 321.823,127.100 321.484,130.909 321.484 L 134.474 321.484 134.283 319.495 C 133.923 315.747,130.301 313.774,126.961 315.506 M139.090 315.506 C 134.006 318.182,135.421 325.813,141.120 326.456 C 144.006 326.781,145.703 326.009,145.703 324.370 C 145.703 323.129,145.638 323.054,144.901 323.449 C 143.628 324.130,141.083 324.010,140.219 323.228 C 138.666 321.823,139.209 321.484,143.018 321.484 L 146.584 321.484 146.393 319.495 C 146.033 315.753,142.396 313.766,139.090 315.506 M153.613 315.487 C 152.915 315.832,152.344 316.267,152.344 316.455 C 152.344 316.643,152.168 316.797,151.953 316.797 C 151.738 316.797,151.563 316.445,151.563 316.016 C 151.563 315.365,151.302 315.234,150.000 315.234 L 148.438 315.234 148.438 320.703 L 148.438 326.172 150.195 326.172 L 151.953 326.172 151.953 322.685 C 151.953 319.383,152.008 319.154,152.982 318.388 C 155.132 316.697,155.859 317.734,155.859 322.489 L 155.859 326.172 157.422 326.172 L 158.984 326.172 158.984 321.893 C 158.984 315.426,157.450 313.596,153.613 315.487 M184.234 315.809 C 182.886 316.724,182.813 316.734,182.813 316.004 C 182.813 315.367,182.544 315.234,181.250 315.234 L 179.688 315.234 179.688 320.703 L 179.688 326.172 181.250 326.172 L 182.813 326.172 182.813 322.834 C 182.813 319.811,182.903 319.405,183.771 318.537 C 185.896 316.412,186.719 317.475,186.719 322.344 L 186.719 326.172 188.509 326.172 L 190.300 326.172 190.169 321.450 C 189.993 315.060,188.053 313.217,184.234 315.809 M195.052 315.650 C 192.352 316.986,191.362 320.603,192.841 323.721 C 194.456 327.123,201.953 327.667,201.953 324.382 C 201.953 323.129,201.889 323.054,201.151 323.449 C 199.229 324.478,195.990 323.796,195.593 322.278 C 195.395 321.521,195.559 321.484,199.113 321.484 L 202.841 321.484 202.590 319.654 C 202.021 315.503,198.803 313.793,195.052 315.650 M209.570 315.316 C 209.141 315.562,208.575 316.040,208.313 316.378 C 207.898 316.914,207.836 316.881,207.825 316.113 C 207.814 315.350,207.606 315.234,206.250 315.234 L 204.688 315.234 204.688 320.703 L 204.688 326.172 206.348 326.173 L 208.008 326.174 207.883 323.135 C 207.732 319.444,208.629 317.771,210.604 318.060 C 211.683 318.219,211.719 318.171,211.719 316.534 C 211.719 314.708,211.171 314.398,209.570 315.316 M215.756 315.626 C 212.282 317.396,211.786 323.361,214.928 325.562 C 216.047 326.346,218.717 326.347,219.835 325.564 C 220.929 324.798,221.104 326.206,220.095 327.647 C 219.418 328.614,215.904 328.901,214.427 328.111 C 213.740 327.744,213.672 327.845,213.672 329.234 C 213.672 330.943,214.303 331.250,217.814 331.250 C 222.930 331.250,223.828 329.764,223.828 321.302 L 223.828 315.234 222.559 315.231 C 221.860 315.229,220.410 315.131,219.336 315.012 C 217.815 314.845,217.023 314.981,215.756 315.626 M259.180 315.374 C 254.820 317.392,254.603 323.970,258.834 325.842 C 263.148 327.750,267.577 325.147,267.577 320.703 C 267.577 316.538,262.975 313.617,259.180 315.374 M306.416 315.584 C 302.178 317.509,302.551 324.711,306.961 326.116 C 310.547 327.259,313.935 325.640,314.818 322.362 C 316.244 317.064,311.530 313.261,306.416 315.584 M322.447 315.197 C 322.010 315.384,321.417 315.821,321.130 316.167 C 320.412 317.032,319.953 316.957,320.199 316.016 C 320.382 315.318,320.211 315.234,318.600 315.234 L 316.797 315.234 316.797 320.703 L 316.797 326.172 318.540 326.172 L 320.283 326.172 320.395 322.599 C 320.502 319.204,320.562 318.987,321.596 318.216 C 323.509 316.790,324.004 317.568,324.135 322.209 L 324.246 326.172 325.893 326.173 L 327.539 326.174 327.344 321.302 C 327.109 315.439,325.773 313.773,322.447 315.197 M331.735 315.403 C 328.687 316.785,329.308 320.926,332.681 321.710 C 334.594 322.155,335.672 323.011,335.135 323.659 C 334.561 324.349,333.082 324.350,331.152 323.662 L 329.688 323.139 329.688 324.442 C 329.688 325.862,331.054 326.555,333.861 326.560 C 339.205 326.570,340.164 321.326,335.153 319.499 C 332.119 318.392,332.445 316.472,335.519 317.348 C 335.964 317.474,336.680 317.678,337.109 317.800 C 337.969 318.044,338.308 315.929,337.490 315.423 C 336.571 314.856,332.971 314.843,331.735 315.403 M225.580 315.918 C 225.730 316.294,226.521 318.447,227.338 320.703 C 228.155 322.959,229.046 325.287,229.317 325.877 C 229.921 327.189,228.984 328.516,227.454 328.516 C 225.873 328.516,226.323 331.015,227.930 331.161 C 230.886 331.429,231.881 329.993,235.134 320.766 L 237.084 315.234 235.437 315.236 L 233.789 315.238 232.847 318.459 C 231.465 323.183,231.488 323.178,230.097 319.001 L 228.842 315.234 227.074 315.234 C 225.548 315.234,225.344 315.327,225.580 315.918 M275.396 319.434 C 275.405 326.074,278.350 328.736,281.963 325.371 L 282.813 324.579 282.813 325.375 C 282.813 326.044,283.063 326.172,284.375 326.172 L 285.938 326.172 285.938 320.703 L 285.938 315.234 284.390 315.234 L 282.842 315.234 282.730 318.827 L 282.617 322.419 281.318 323.177 C 279.361 324.318,278.971 323.672,278.828 319.047 L 278.711 315.242 277.051 315.238 L 275.391 315.234 275.396 319.434 M298.047 320.703 L 298.047 326.172 299.609 326.172 L 301.172 326.172 301.172 320.703 L 301.172 315.234 299.609 315.234 L 298.047 315.234 298.047 320.703 M80.636 317.801 C 81.853 319.018,81.397 319.531,79.102 319.531 C 76.794 319.531,76.504 319.199,77.734 317.969 C 78.673 317.030,79.800 316.965,80.636 317.801 M130.494 317.592 C 132.097 318.450,131.429 319.531,129.297 319.531 C 127.204 319.531,126.880 319.128,127.990 317.902 C 128.724 317.091,129.402 317.007,130.494 317.592 M142.891 317.656 C 144.028 318.794,143.444 319.531,141.406 319.531 C 139.313 319.531,138.990 319.128,140.100 317.902 C 140.838 317.086,142.200 316.966,142.891 317.656 M198.996 317.801 C 200.210 319.016,199.756 319.531,197.473 319.531 C 195.609 319.531,195.367 319.444,195.575 318.848 C 196.128 317.255,197.905 316.711,198.996 317.801 M220.624 319.984 C 220.780 322.958,218.353 324.726,216.756 322.802 C 215.143 320.858,216.707 317.454,219.121 317.657 L 220.508 317.773 220.624 319.984 M263.281 318.359 C 264.974 320.052,263.849 323.828,261.652 323.828 C 260.200 323.828,259.375 322.721,259.375 320.771 C 259.375 317.866,261.485 316.563,263.281 318.359 M310.391 317.877 C 312.510 319.292,311.586 323.828,309.180 323.828 C 307.619 323.828,306.785 322.253,306.970 319.657 C 307.086 318.038,309.079 317.001,310.391 317.877 " stroke="none" fill="#0653b1" fill-rule="evenodd"></path><path id="path1" d="M0.000 200.000 L 0.000 400.000 200.000 400.000 L 400.000 400.000 400.000 200.000 L 400.000 0.000 200.000 0.000 L 0.000 0.000 0.000 200.000 M201.350 71.069 C 202.102 76.750,202.678 81.409,202.628 81.423 C 201.689 81.700,195.703 81.082,195.703 80.708 C 195.703 80.442,196.472 76.368,197.413 71.655 C 198.353 66.942,199.255 62.383,199.416 61.523 C 199.812 59.415,199.795 59.332,201.350 71.069 M224.839 64.746 C 224.628 65.424,221.094 85.484,221.094 86.006 C 221.094 86.261,214.532 84.194,214.159 83.821 C 213.973 83.634,224.588 64.063,224.876 64.063 C 224.973 64.063,224.957 64.370,224.839 64.746 M244.883 78.613 C 240.298 88.928,237.385 95.313,237.265 95.313 C 237.193 95.313,235.738 94.425,234.030 93.341 L 230.925 91.370 232.446 89.728 C 233.283 88.825,236.740 84.980,240.129 81.184 C 243.517 77.387,246.412 74.267,246.563 74.250 C 246.713 74.233,245.957 76.196,244.883 78.613 M204.768 85.527 C 261.350 95.201,279.753 162.407,235.695 198.472 L 232.914 200.749 230.951 196.566 C 229.872 194.265,225.086 184.121,220.315 174.023 C 196.189 122.958,179.290 86.570,179.570 86.293 C 181.055 84.822,197.687 84.317,204.768 85.527 M178.431 96.582 L 182.760 105.664 180.150 106.472 C 161.425 112.266,148.683 131.002,149.747 151.179 C 151.536 185.132,188.162 204.807,218.049 187.872 C 219.509 187.044,220.703 186.409,220.703 186.460 C 220.703 186.510,222.532 190.401,224.768 195.105 L 228.833 203.659 227.014 204.822 C 214.228 212.995,196.107 215.998,180.859 212.470 C 128.030 200.247,111.876 133.110,153.516 98.828 C 158.890 94.403,170.833 87.766,173.867 87.519 C 173.996 87.509,176.049 91.587,178.431 96.582 M259.691 96.783 C 256.402 100.385,252.819 104.321,251.729 105.529 L 249.747 107.725 247.335 105.063 C 246.008 103.599,244.922 102.315,244.922 102.210 C 244.922 102.046,248.864 99.706,262.305 91.892 C 263.809 91.018,265.181 90.287,265.355 90.269 C 265.529 90.250,262.980 93.181,259.691 96.783 M186.558 113.568 C 187.809 116.231,188.535 118.210,188.290 118.291 C 188.058 118.369,186.104 119.294,183.949 120.349 C 181.793 121.403,179.854 122.266,179.640 122.266 C 179.332 122.266,175.000 113.672,175.000 113.061 C 175.000 112.655,183.040 109.069,184.097 109.003 C 184.266 108.993,185.374 111.047,186.558 113.568 M278.301 110.503 C 278.097 110.694,273.639 113.695,268.396 117.173 L 258.861 123.496 257.178 120.264 C 256.252 118.486,255.533 117.012,255.580 116.988 C 255.626 116.964,258.564 116.105,262.109 115.080 C 265.654 114.054,270.664 112.545,273.242 111.726 C 278.371 110.097,278.862 109.978,278.301 110.503 M176.081 118.262 C 177.299 120.786,178.346 122.945,178.409 123.058 C 178.472 123.172,178.024 123.559,177.415 123.919 C 176.805 124.279,174.813 125.880,172.987 127.476 L 169.667 130.379 167.270 125.567 L 164.873 120.755 167.062 118.755 C 168.842 117.127,173.274 113.772,173.749 113.692 C 173.814 113.681,174.863 115.737,176.081 118.262 M191.739 124.611 C 194.470 130.386,194.450 130.307,193.250 130.608 C 192.760 130.731,190.886 131.716,189.086 132.798 C 187.286 133.880,185.709 134.762,185.582 134.757 C 185.406 134.751,180.742 125.356,180.159 123.831 C 180.023 123.475,187.806 119.581,188.711 119.551 C 189.137 119.538,190.104 121.155,191.739 124.611 M166.506 126.614 L 168.754 131.307 166.311 134.111 C 164.967 135.652,163.089 137.911,162.138 139.130 L 160.409 141.346 158.525 137.435 C 157.489 135.284,156.641 133.316,156.641 133.061 C 156.641 131.791,163.196 121.831,163.988 121.898 C 164.136 121.910,165.269 124.032,166.506 126.614 M181.733 129.938 L 184.520 135.656 183.178 136.822 C 182.440 137.462,180.501 139.183,178.869 140.645 L 175.902 143.303 173.123 137.444 L 170.344 131.585 172.843 129.247 C 175.050 127.182,178.502 124.295,178.829 124.239 C 178.894 124.228,180.201 126.792,181.733 129.938 M197.748 137.278 C 199.222 140.459,200.376 143.098,200.312 143.143 C 198.554 144.366,192.079 148.445,192.029 148.360 C 191.990 148.295,190.648 145.538,189.046 142.232 L 186.133 136.223 187.222 135.397 C 188.851 134.162,194.282 131.243,194.702 131.377 C 194.903 131.441,196.274 134.097,197.748 137.278 M172.323 138.514 L 175.058 144.215 173.095 146.424 C 172.016 147.639,170.201 149.896,169.062 151.440 C 166.496 154.920,167.095 155.268,163.755 148.363 L 160.908 142.478 163.329 139.501 C 166.725 135.324,168.891 132.899,169.267 132.852 C 169.443 132.830,170.818 135.378,172.323 138.514 M284.995 133.885 C 284.874 134.006,265.384 140.026,264.051 140.354 C 263.090 140.590,263.050 140.519,262.613 137.779 C 262.365 136.229,262.046 134.658,261.903 134.287 C 261.659 133.656,262.403 133.618,273.366 133.701 C 279.814 133.749,285.047 133.832,284.995 133.885 M157.630 138.351 C 159.687 142.577,159.663 142.365,158.314 144.343 C 157.731 145.198,156.325 147.375,155.189 149.181 L 153.125 152.463 153.128 148.985 C 153.132 144.320,154.883 134.766,155.734 134.766 C 155.817 134.766,156.671 136.379,157.630 138.351 M188.281 143.347 L 191.211 149.261 188.477 151.672 C 186.973 152.998,185.058 154.751,184.222 155.567 C 183.386 156.383,182.642 156.991,182.569 156.918 C 182.497 156.845,181.107 154.003,179.481 150.601 L 176.525 144.416 179.349 141.837 C 182.982 138.519,184.797 137.082,185.105 137.277 C 185.241 137.362,186.670 140.094,188.281 143.347 M163.107 149.651 C 165.707 154.843,165.996 155.629,165.513 156.194 C 164.690 157.155,160.847 163.516,159.354 166.386 L 158.043 168.905 157.165 166.972 C 153.222 158.292,152.920 154.939,155.688 150.586 C 156.917 148.652,158.382 146.329,158.942 145.423 C 159.502 144.516,160.004 143.769,160.056 143.762 C 160.109 143.756,161.481 146.405,163.107 149.651 M206.369 155.912 C 206.436 156.468,200.228 161.561,199.023 161.938 C 198.809 162.005,197.277 159.263,195.619 155.844 L 192.606 149.628 194.440 148.349 C 195.448 147.646,197.332 146.421,198.625 145.628 L 200.977 144.185 203.634 149.729 C 205.096 152.779,206.327 155.561,206.369 155.912 M178.912 152.203 L 181.718 158.117 179.302 160.992 C 177.973 162.573,176.242 164.868,175.455 166.092 C 174.667 167.315,173.918 168.326,173.790 168.338 C 173.523 168.363,167.578 156.055,167.578 155.478 C 167.578 154.458,175.363 145.510,175.827 145.997 C 175.980 146.157,177.368 148.950,178.912 152.203 M194.705 156.572 C 198.283 163.801,198.432 162.423,193.548 167.254 L 189.440 171.318 186.288 164.858 L 183.136 158.398 187.329 154.387 C 189.635 152.181,191.575 150.429,191.638 150.493 C 191.702 150.556,193.082 153.292,194.705 156.572 M275.000 154.756 C 280.908 156.323,285.479 157.649,285.156 157.704 C 284.515 157.813,262.326 158.538,262.270 158.452 C 261.869 157.839,263.141 151.586,263.638 151.729 C 263.979 151.828,269.092 153.190,275.000 154.756 M171.788 171.787 C 171.154 172.920,169.895 175.322,168.989 177.125 L 167.344 180.404 165.941 179.167 C 164.045 177.495,160.530 173.186,159.570 171.358 L 158.789 169.870 160.305 167.064 C 161.139 165.520,162.884 162.521,164.184 160.397 L 166.546 156.537 169.744 163.132 L 172.942 169.727 171.788 171.787 M212.502 168.594 L 213.203 170.196 210.606 172.178 C 209.177 173.269,207.470 174.601,206.812 175.137 L 205.616 176.114 202.540 169.923 C 198.973 162.745,198.850 163.645,203.906 159.908 L 207.227 157.453 209.513 162.223 C 210.771 164.846,212.116 167.713,212.502 168.594 M186.381 175.384 C 185.118 177.059,183.422 179.504,182.612 180.817 C 180.731 183.864,181.163 184.233,177.493 176.450 L 174.322 169.727 176.126 167.118 C 177.118 165.684,178.894 163.345,180.072 161.921 L 182.213 159.333 185.445 165.835 L 188.676 172.337 186.381 175.384 M201.633 170.693 L 204.634 176.882 202.409 179.164 C 201.185 180.419,199.333 182.380,198.294 183.522 C 197.255 184.664,196.337 185.530,196.254 185.447 C 195.965 185.158,190.234 173.053,190.234 172.731 C 190.234 172.364,198.096 164.439,198.422 164.478 C 198.538 164.492,199.983 167.289,201.633 170.693 M279.296 180.949 C 279.296 181.105,278.901 181.065,278.418 180.859 C 277.590 180.505,270.550 178.893,261.328 176.944 C 259.072 176.467,257.167 176.024,257.095 175.960 C 257.022 175.896,257.525 174.364,258.212 172.556 L 259.460 169.269 269.378 174.967 C 274.832 178.100,279.295 180.792,279.296 180.949 M179.918 185.351 C 179.216 188.145,177.033 187.648,170.984 183.315 C 167.821 181.049,167.824 181.757,170.953 175.859 L 173.547 170.970 176.830 177.769 C 178.872 181.997,180.040 184.864,179.918 185.351 M214.811 173.447 C 215.275 174.526,216.413 176.981,217.340 178.902 L 219.024 182.395 217.598 183.339 C 215.962 184.422,212.679 186.111,211.510 186.472 C 210.815 186.687,210.428 186.136,208.420 182.074 L 206.124 177.431 207.616 176.118 C 213.322 171.096,213.733 170.943,214.811 173.447 M192.394 180.371 L 195.518 186.914 194.537 188.775 L 193.555 190.635 190.632 190.373 C 184.419 189.815,181.823 188.176,181.653 184.705 C 181.642 184.485,185.726 178.289,188.086 174.945 C 189.166 173.415,188.930 173.118,192.394 180.371 M207.333 182.622 C 208.456 184.880,209.375 186.887,209.375 187.082 C 209.375 187.640,200.519 190.234,198.615 190.234 C 198.526 190.234,198.084 189.511,197.634 188.628 L 196.814 187.021 197.910 185.795 C 200.015 183.443,204.866 178.516,205.078 178.516 C 205.195 178.516,206.210 180.363,207.333 182.622 M264.194 198.222 L 267.383 201.718 264.844 200.328 C 263.447 199.563,260.020 197.747,257.227 196.292 C 254.434 194.837,251.058 193.051,249.726 192.323 L 247.304 190.999 249.531 188.049 L 251.758 185.099 256.382 189.913 C 258.925 192.560,262.440 196.300,264.194 198.222 M181.582 187.500 C 181.888 188.378,181.873 188.670,181.523 188.666 C 180.599 188.654,180.110 188.048,180.334 187.193 C 180.646 186.000,181.098 186.111,181.582 187.500 M196.848 189.896 C 196.863 190.032,196.523 190.235,196.094 190.348 C 195.206 190.580,195.110 190.171,195.764 188.948 C 196.205 188.124,196.699 188.556,196.848 189.896 M63.867 231.349 C 64.727 231.660,65.386 232.029,65.332 232.168 C 65.278 232.308,65.234 233.730,65.234 235.330 L 65.234 238.237 63.403 237.427 C 52.659 232.675,43.106 245.480,51.295 253.657 C 54.221 256.579,62.009 257.160,64.629 254.652 C 65.431 253.884,65.625 254.415,65.625 257.379 L 65.625 260.462 63.965 261.133 C 53.034 265.555,41.992 258.291,41.992 246.680 C 41.992 234.832,52.717 227.315,63.867 231.349 M141.895 231.251 L 143.750 231.733 143.750 234.771 L 143.750 237.809 141.309 237.039 C 134.921 235.027,129.172 237.015,131.427 240.457 C 132.155 241.568,132.806 241.931,137.056 243.599 C 143.464 246.115,145.119 248.175,144.860 253.310 C 144.493 260.569,136.146 264.097,126.270 261.168 L 123.828 260.444 123.828 256.796 L 123.828 253.149 125.211 254.087 C 128.760 256.495,135.940 257.101,137.538 255.128 C 139.420 252.804,137.837 250.828,132.365 248.672 C 126.357 246.304,124.246 243.934,124.227 239.538 C 124.197 232.340,132.001 228.679,141.895 231.251 M192.605 231.081 C 199.978 233.209,204.370 241.272,202.780 249.763 C 199.614 266.679,175.051 266.132,172.638 249.092 C 170.888 236.737,180.902 227.704,192.605 231.081 M235.645 231.251 L 237.500 231.733 237.500 234.812 C 237.500 236.505,237.456 237.891,237.402 237.890 C 237.349 237.890,236.338 237.521,235.156 237.069 C 231.522 235.680,226.415 235.984,225.299 237.656 C 224.058 239.515,225.489 241.599,228.831 242.798 C 238.204 246.161,241.073 250.677,237.874 257.031 C 235.612 261.524,226.747 263.542,219.978 261.105 L 217.885 260.352 217.829 256.933 C 217.799 255.053,217.789 253.515,217.809 253.515 C 217.828 253.516,218.931 254.059,220.259 254.722 C 225.733 257.458,232.031 256.712,232.031 253.328 C 232.031 251.754,230.969 250.741,227.929 249.412 C 220.544 246.186,219.712 245.605,218.575 242.884 C 215.094 234.548,224.270 228.294,235.645 231.251 M263.963 231.823 C 276.767 237.569,274.675 258.536,260.981 261.724 C 248.835 264.550,239.168 254.073,242.399 241.586 C 244.774 232.410,254.977 227.790,263.963 231.823 M86.661 231.671 C 94.337 233.264,95.396 244.386,88.225 248.098 L 87.192 248.633 91.052 254.883 C 93.176 258.320,94.915 261.265,94.917 261.426 C 94.920 261.587,93.208 261.716,91.113 261.714 L 87.305 261.708 83.963 255.952 L 80.622 250.195 78.983 250.075 L 77.344 249.955 77.344 255.837 L 77.344 261.719 74.023 261.719 L 70.703 261.719 70.703 246.387 L 70.702 231.055 77.636 231.146 C 81.450 231.196,85.511 231.433,86.661 231.671 M122.266 231.134 C 122.266 231.177,120.024 235.220,117.285 240.118 L 112.305 249.023 112.109 255.273 L 111.914 261.523 108.496 261.636 L 105.078 261.749 105.078 255.887 L 105.078 250.024 100.039 240.637 L 94.999 231.250 98.865 231.250 L 102.730 231.250 105.694 237.402 L 108.658 243.555 111.397 238.086 C 115.290 230.312,114.519 231.055,118.696 231.055 C 120.660 231.055,122.266 231.090,122.266 231.134 M171.756 234.209 L 171.840 237.109 167.365 237.109 L 162.891 237.109 162.891 249.414 L 162.891 261.719 159.570 261.719 L 156.250 261.719 156.250 249.414 L 156.250 237.109 151.758 237.109 L 147.266 237.109 147.266 234.185 L 147.266 231.261 159.277 231.158 C 173.314 231.037,171.653 230.631,171.756 234.209 M283.203 243.474 L 283.203 255.893 289.551 255.839 L 295.898 255.784 295.898 258.654 L 295.898 261.523 286.230 261.628 L 276.563 261.732 276.563 246.394 L 276.563 231.055 279.883 231.055 L 283.203 231.055 283.203 243.474 M322.317 245.508 C 325.247 253.457,327.766 260.363,327.916 260.855 C 328.187 261.747,328.180 261.749,324.543 261.636 L 320.898 261.523 319.895 258.398 L 318.891 255.273 312.977 255.166 L 307.063 255.058 306.047 258.388 L 305.031 261.719 301.539 261.719 C 299.618 261.719,298.047 261.579,298.047 261.409 C 298.047 261.077,307.746 234.663,308.750 232.260 L 309.347 230.831 313.168 230.943 L 316.989 231.055 322.317 245.508 M350.270 232.325 C 355.656 235.189,356.020 244.092,350.885 247.344 C 350.104 247.838,349.311 248.347,349.122 248.476 C 348.933 248.604,350.527 251.593,352.664 255.116 L 356.549 261.523 352.792 261.636 C 348.389 261.769,349.181 262.430,345.047 255.176 L 342.098 250.000 340.580 250.000 L 339.063 250.000 339.063 255.859 L 339.063 261.719 335.742 261.719 L 332.422 261.719 332.421 246.387 L 332.421 231.055 340.527 231.254 C 347.944 231.437,348.772 231.528,350.270 232.325 M77.344 240.585 L 77.344 244.922 79.590 244.900 C 87.959 244.818,88.971 236.732,80.655 236.386 L 77.344 236.248 77.344 240.585 M183.984 237.207 C 177.988 240.412,177.898 252.452,183.849 255.276 C 192.135 259.208,199.031 250.113,194.789 240.848 C 192.913 236.750,187.961 235.081,183.984 237.207 M253.637 237.088 C 246.663 240.254,247.508 253.926,254.799 255.889 C 259.579 257.176,263.727 254.487,265.068 249.233 C 267.226 240.780,260.723 233.871,253.637 237.088 M339.063 240.625 L 339.063 244.922 341.186 244.922 C 344.788 244.922,347.044 243.571,347.500 241.142 C 348.093 237.977,346.077 236.328,341.614 236.328 L 339.063 236.328 339.063 240.625 M310.982 243.270 C 310.039 246.220,309.189 248.853,309.094 249.121 C 308.961 249.492,309.901 249.609,312.992 249.609 L 317.065 249.609 315.186 244.238 C 314.153 241.284,313.301 238.647,313.294 238.379 C 313.255 236.911,312.510 238.486,310.982 243.270 M249.805 271.162 L 251.367 271.681 251.482 274.756 C 251.588 277.580,251.540 277.809,250.896 277.554 C 240.500 273.444,232.557 277.664,233.299 286.904 C 233.795 293.079,239.237 297.234,244.852 295.722 L 246.484 295.282 246.484 292.563 C 246.484 291.067,246.483 289.712,246.481 289.551 C 246.479 289.390,245.336 289.269,243.942 289.283 L 241.406 289.308 241.406 286.646 L 241.406 283.984 247.274 283.984 L 253.141 283.984 253.035 291.879 L 252.930 299.773 250.586 300.539 C 246.893 301.746,238.527 301.678,235.352 300.415 C 224.180 295.971,223.013 278.257,233.516 272.541 C 237.593 270.322,245.307 269.669,249.805 271.162 M131.560 273.535 L 131.445 276.367 125.684 276.475 L 119.922 276.583 119.922 279.698 L 119.922 282.813 125.000 282.813 L 130.078 282.813 130.078 285.742 L 130.078 288.672 125.000 288.672 L 119.922 288.672 119.922 291.992 L 119.922 295.313 125.977 295.313 L 132.031 295.313 132.031 298.242 L 132.031 301.172 122.656 301.172 L 113.281 301.172 113.281 285.938 L 113.281 270.703 122.478 270.703 L 131.675 270.703 131.560 273.535 M152.246 280.553 L 158.984 290.374 158.984 280.539 L 158.984 270.703 162.305 270.703 L 165.625 270.703 165.625 285.938 L 165.625 301.172 162.402 301.151 L 159.180 301.130 154.492 294.426 C 151.914 290.739,148.794 286.241,147.559 284.429 L 145.313 281.136 145.313 291.154 L 145.313 301.172 141.992 301.172 L 138.672 301.172 138.672 285.938 L 138.672 270.703 142.090 270.717 L 145.508 270.732 152.246 280.553 M191.797 273.633 L 191.797 276.563 185.938 276.563 L 180.078 276.563 180.078 279.688 L 180.078 282.813 185.352 282.813 L 190.625 282.813 190.625 285.742 L 190.625 288.672 185.352 288.672 L 180.078 288.672 180.078 291.982 L 180.078 295.293 186.230 295.400 L 192.383 295.508 192.498 298.340 L 192.612 301.172 183.025 301.172 L 173.438 301.172 173.438 285.938 L 173.438 270.703 182.617 270.703 L 191.797 270.703 191.797 273.633 M216.211 271.616 C 222.971 274.606,222.722 285.690,215.842 288.012 C 215.639 288.081,217.264 291.070,219.452 294.654 L 223.431 301.172 219.430 301.157 L 215.430 301.142 212.260 295.591 L 209.089 290.039 207.474 289.919 L 205.859 289.799 205.859 295.485 L 205.859 301.172 202.539 301.172 L 199.219 301.172 199.219 285.902 L 199.219 270.632 206.934 270.779 C 213.238 270.898,214.934 271.051,216.211 271.616 M266.929 277.022 L 269.935 283.341 273.037 277.022 L 276.138 270.703 279.713 270.703 C 282.933 270.703,283.261 270.770,283.029 271.375 C 282.887 271.745,280.583 276.030,277.909 280.897 L 273.047 289.747 273.047 295.459 L 273.047 301.172 269.727 301.172 L 266.406 301.172 266.406 295.445 L 266.406 289.718 262.829 283.043 C 260.861 279.371,258.576 275.165,257.751 273.695 C 256.925 272.226,256.250 270.952,256.250 270.863 C 256.250 270.775,257.976 270.703,260.086 270.703 L 263.923 270.703 266.929 277.022 M205.859 280.273 L 205.859 284.375 208.301 284.374 C 211.607 284.374,213.316 283.498,213.979 281.468 C 215.152 277.876,213.528 276.172,208.932 276.172 L 205.859 276.172 205.859 280.273 M300.807 310.170 C 301.663 310.628,301.837 312.460,301.094 313.203 C 300.400 313.897,298.177 313.793,297.893 313.054 C 296.992 310.705,298.681 309.032,300.807 310.170 M273.047 318.164 L 273.047 326.172 271.289 326.172 L 269.531 326.172 269.531 318.164 L 269.531 310.156 271.289 310.156 L 273.047 310.156 273.047 318.164 M70.215 311.184 C 70.951 311.381,71.094 311.688,71.094 313.078 L 71.094 314.737 69.311 314.150 C 66.047 313.075,63.036 314.771,62.613 317.923 C 62.188 321.091,64.074 323.438,67.045 323.438 L 68.750 323.438 68.750 321.875 C 68.750 320.399,68.685 320.313,67.578 320.313 C 66.499 320.313,66.406 320.204,66.406 318.945 L 66.406 317.578 69.336 317.578 L 72.266 317.578 72.266 321.471 C 72.266 326.055,72.165 326.172,67.941 326.474 C 62.659 326.852,59.496 324.575,58.793 319.889 C 57.880 313.801,63.629 309.419,70.215 311.184 M111.621 311.184 C 112.358 311.381,112.500 311.688,112.500 313.086 L 112.500 314.752 110.852 314.185 C 106.534 312.697,102.965 316.022,104.256 320.329 C 104.867 322.369,106.309 323.438,108.451 323.438 L 110.156 323.438 110.156 321.875 C 110.156 320.399,110.091 320.313,108.984 320.313 C 107.906 320.313,107.813 320.204,107.813 318.945 L 107.813 317.578 110.742 317.578 L 113.672 317.578 113.672 321.504 L 113.672 325.430 112.317 325.996 C 108.345 327.656,102.703 325.993,100.986 322.656 C 97.529 315.941,103.866 309.105,111.621 311.184 M177.344 312.500 L 177.344 314.063 174.219 314.063 L 171.094 314.063 171.094 315.625 L 171.094 317.188 173.828 317.188 L 176.563 317.188 176.563 318.555 L 176.563 319.922 173.828 319.922 L 171.094 319.922 171.094 321.680 L 171.094 323.438 174.219 323.438 L 177.344 323.438 177.344 324.805 L 177.344 326.172 172.266 326.172 L 167.188 326.172 167.188 318.555 L 167.188 310.938 172.266 310.938 L 177.344 310.938 177.344 312.500 M252.246 311.184 C 252.971 311.378,253.125 311.692,253.125 312.978 C 253.125 314.303,253.022 314.497,252.441 314.272 C 250.830 313.648,248.236 313.612,247.461 314.202 C 246.315 315.076,247.038 315.944,249.756 316.958 C 258.303 320.148,253.753 328.631,244.824 326.151 C 243.422 325.762,243.359 325.673,243.359 324.066 L 243.359 322.387 245.519 323.116 C 250.390 324.761,252.469 321.832,247.782 319.926 C 239.737 316.656,243.701 308.894,252.246 311.184 M92.110 315.236 C 93.495 315.237,93.556 315.294,93.584 316.603 C 93.612 317.931,93.572 317.969,92.119 317.969 L 90.625 317.969 90.625 320.460 C 90.625 323.282,91.160 324.073,92.793 323.663 C 93.755 323.421,93.793 323.475,93.677 324.889 C 93.557 326.335,93.517 326.370,91.841 326.490 C 88.189 326.751,87.109 325.471,87.109 320.880 C 87.109 318.035,87.087 317.969,86.133 317.969 C 85.277 317.969,85.156 317.799,85.156 316.602 C 85.156 315.404,85.277 315.234,86.133 315.234 C 86.983 315.234,87.109 315.063,87.109 313.904 C 87.109 312.682,87.244 312.531,88.770 312.049 L 90.430 311.523 90.548 313.379 L 90.666 315.234 92.110 315.236 M292.969 313.477 L 292.969 315.234 294.531 315.234 C 296.057 315.234,296.094 315.267,296.094 316.602 C 296.094 317.936,296.057 317.969,294.531 317.969 L 292.969 317.969 292.969 320.460 C 292.969 323.267,293.506 324.072,295.112 323.669 C 296.299 323.371,296.642 325.878,295.476 326.325 C 291.912 327.693,289.696 325.835,289.511 321.323 C 289.388 318.338,289.291 317.969,288.632 317.969 C 288.045 317.969,287.891 317.684,287.891 316.602 C 287.891 315.495,288.039 315.234,288.672 315.234 C 289.298 315.234,289.453 314.974,289.453 313.924 C 289.453 312.789,289.624 312.558,290.723 312.206 C 292.860 311.520,292.969 311.581,292.969 313.477 M82.683 316.147 C 83.931 317.290,84.127 317.724,84.291 319.691 L 84.477 321.933 80.909 321.806 C 77.152 321.673,76.665 321.921,78.115 323.234 C 78.895 323.939,81.212 323.939,82.937 323.233 C 83.561 322.978,83.632 323.124,83.523 324.437 C 83.215 328.135,75.897 327.126,74.135 323.143 C 71.641 317.505,78.256 312.090,82.683 316.147 M122.971 316.694 C 123.090 318.337,123.083 318.347,121.938 318.118 C 119.863 317.703,119.141 318.926,119.141 322.852 L 119.141 326.172 117.383 326.172 L 115.625 326.172 115.625 320.703 L 115.625 315.234 117.383 315.234 C 118.685 315.234,119.141 315.386,119.141 315.820 C 119.141 316.270,119.327 316.219,119.946 315.601 C 121.370 314.177,122.827 314.703,122.971 316.694 M132.044 315.436 C 133.542 316.211,134.375 317.887,134.375 320.126 L 134.375 321.930 130.858 321.805 C 127.250 321.676,126.853 321.858,127.990 323.114 C 128.709 323.908,130.952 324.071,132.592 323.447 C 133.549 323.083,133.594 323.127,133.594 324.433 C 133.594 327.592,126.542 327.297,124.565 324.055 C 121.490 319.012,126.901 312.777,132.044 315.436 M144.153 315.436 C 145.643 316.206,146.484 317.884,146.484 320.083 L 146.484 321.846 142.871 321.958 L 139.258 322.070 140.137 322.949 C 141.082 323.895,142.963 324.108,144.661 323.462 C 145.554 323.123,145.635 323.193,145.779 324.428 C 146.172 327.797,138.224 327.160,136.577 323.691 C 134.051 318.366,139.126 312.836,144.153 315.436 M158.026 315.803 C 158.937 316.714,158.984 316.992,158.984 321.467 L 158.984 326.172 157.240 326.172 L 155.496 326.172 155.385 322.173 C 155.262 317.764,154.899 317.229,152.910 318.531 C 152.012 319.120,151.953 319.375,151.953 322.665 L 151.953 326.172 150.195 326.172 L 148.438 326.172 148.438 320.703 L 148.438 315.234 150.241 315.234 C 151.884 315.234,152.025 315.308,151.828 316.060 L 151.612 316.886 152.466 316.110 C 154.207 314.528,156.618 314.395,158.026 315.803 M188.459 315.086 C 189.765 315.588,190.234 317.377,190.234 321.856 L 190.234 326.172 188.490 326.172 L 186.746 326.172 186.635 322.168 C 186.527 318.309,186.491 318.159,185.612 318.035 C 183.786 317.776,183.203 318.909,183.203 322.717 L 183.203 326.172 181.466 326.172 L 179.729 326.172 179.610 320.702 L 179.492 315.233 181.152 315.234 C 182.575 315.234,182.813 315.351,182.813 316.050 C 182.813 316.836,182.858 316.828,184.014 315.855 C 185.197 314.860,187.039 314.542,188.459 315.086 M199.988 315.343 C 201.530 316.124,202.734 318.242,202.734 320.175 L 202.734 321.875 199.219 321.875 C 195.571 321.875,195.183 322.065,196.463 323.223 C 197.239 323.925,199.735 323.948,201.270 323.267 C 201.851 323.009,201.953 323.176,201.953 324.382 C 201.953 327.713,194.800 327.306,192.811 323.861 C 189.978 318.957,195.105 312.872,199.988 315.343 M211.872 316.717 C 211.911 318.293,211.858 318.382,210.994 318.164 C 208.913 317.641,208.203 318.786,208.203 322.665 L 208.203 326.172 206.445 326.172 L 204.688 326.172 204.688 320.703 L 204.688 315.234 206.409 315.234 C 207.964 315.234,208.109 315.313,207.916 316.053 C 207.723 316.790,207.806 316.768,208.741 315.833 C 210.411 314.163,211.817 314.561,211.872 316.717 M221.427 315.095 L 223.828 315.346 223.822 321.638 C 223.816 328.679,223.600 329.502,221.479 330.566 C 219.941 331.337,215.282 331.512,214.037 330.846 C 212.992 330.287,212.924 327.508,213.965 327.924 C 217.114 329.183,220.050 328.443,220.445 326.291 L 220.675 325.043 219.316 325.845 C 214.813 328.502,210.702 322.165,213.714 317.211 C 214.994 315.107,216.801 314.611,221.427 315.095 M264.820 315.558 C 270.125 318.403,267.655 326.563,261.490 326.563 C 257.900 326.563,255.769 324.367,255.769 320.669 C 255.769 316.058,260.632 313.312,264.820 315.558 M312.326 315.466 C 313.857 316.192,315.235 318.686,315.234 320.729 C 315.231 327.887,304.363 328.768,303.302 321.696 C 302.560 316.745,307.636 313.240,312.326 315.466 M326.442 315.786 C 327.513 316.706,327.541 316.837,327.677 321.450 L 327.817 326.172 326.018 326.172 L 324.219 326.172 324.219 322.688 C 324.219 318.610,324.039 317.969,322.897 317.969 C 320.827 317.969,320.313 318.906,320.313 322.678 L 320.313 326.172 318.555 326.172 L 316.797 326.172 316.797 320.703 L 316.797 315.234 318.555 315.234 C 320.103 315.234,320.313 315.336,320.313 316.090 C 320.313 316.841,320.373 316.871,320.801 316.334 C 322.170 314.619,324.789 314.364,326.442 315.786 M336.670 315.088 C 337.738 315.301,337.891 315.492,337.891 316.605 L 337.891 317.879 335.300 317.671 C 332.133 317.417,331.988 318.152,334.985 319.264 C 338.016 320.390,338.875 321.544,338.410 323.868 C 337.725 327.295,329.688 327.768,329.688 324.382 C 329.688 323.182,329.793 323.008,330.371 323.251 C 330.747 323.410,331.978 323.626,333.105 323.732 C 335.924 323.997,335.971 322.990,333.183 322.064 C 326.512 319.848,329.599 313.674,336.670 315.088 M230.250 319.063 L 231.460 322.697 232.581 318.966 L 233.702 315.234 235.405 315.234 C 236.343 315.234,237.109 315.320,237.109 315.424 C 237.109 315.900,233.035 326.915,232.388 328.186 C 230.731 331.445,226.511 332.543,226.245 329.785 C 226.137 328.665,226.235 328.516,227.080 328.516 C 228.670 328.516,229.992 327.183,229.387 326.190 C 228.896 325.385,225.391 315.969,225.391 315.457 C 225.391 315.311,226.212 315.245,227.215 315.311 L 229.040 315.430 230.250 319.063 M278.990 319.238 C 279.100 323.198,279.112 323.243,280.091 323.358 C 282.057 323.587,282.893 322.025,282.746 318.398 L 282.617 315.233 284.473 315.233 L 286.328 315.234 286.328 320.703 L 286.328 326.172 284.570 326.172 C 283.276 326.172,282.813 326.019,282.813 325.592 C 282.813 325.118,282.579 325.154,281.543 325.786 C 277.581 328.201,275.391 326.054,275.391 319.757 L 275.391 315.234 277.135 315.234 L 278.879 315.234 278.990 319.238 M301.367 320.703 L 301.367 326.172 299.512 326.172 L 297.656 326.172 297.656 320.703 L 297.656 315.234 299.512 315.234 L 301.367 315.234 301.367 320.703 M78.212 317.796 C 76.693 318.860,77.113 319.531,79.297 319.531 C 81.415 319.531,81.679 319.179,80.469 317.969 C 79.528 317.028,79.329 317.013,78.212 317.796 M128.477 317.719 C 126.660 318.625,127.055 319.531,129.268 319.531 C 130.596 319.531,131.248 319.370,131.244 319.043 C 131.228 317.720,129.823 317.048,128.477 317.719 M140.234 317.969 C 139.024 319.179,139.288 319.531,141.406 319.531 C 143.503 319.531,143.928 318.983,142.746 317.801 C 141.923 316.978,141.175 317.028,140.234 317.969 M196.571 317.796 C 195.052 318.860,195.472 319.531,197.656 319.531 C 199.098 319.531,199.609 319.384,199.609 318.967 C 199.609 318.464,198.209 317.188,197.656 317.188 C 197.537 317.188,197.049 317.461,196.571 317.796 M217.188 318.359 C 215.664 319.883,216.442 323.460,218.290 323.425 C 219.768 323.397,220.313 322.469,220.313 319.976 L 220.313 317.578 219.141 317.578 C 218.490 317.578,217.622 317.925,217.188 318.359 M260.156 318.359 C 258.577 319.939,259.562 323.828,261.541 323.828 C 262.593 323.828,264.063 322.007,264.063 320.703 C 264.063 318.322,261.645 316.871,260.156 318.359 M307.899 318.186 C 306.187 319.385,307.127 323.828,309.093 323.828 C 310.455 323.828,311.328 322.622,311.328 320.742 C 311.328 317.958,309.825 316.838,307.899 318.186 " stroke="none" fill="#fbfbfb" fill-rule="evenodd"></path><path id="path2" d="M54.366 230.862 C 38.850 234.142,37.088 256.262,51.953 261.165 C 54.904 262.138,60.792 262.152,63.574 261.192 L 65.625 260.484 65.625 257.412 L 65.625 254.341 63.770 255.166 C 55.638 258.784,47.933 254.017,48.526 245.734 C 49.107 237.610,55.933 234.186,64.551 237.696 C 65.168 237.947,65.234 237.671,65.234 234.854 L 65.234 231.733 63.379 231.262 C 60.864 230.624,56.424 230.427,54.366 230.862 M131.250 231.069 C 126.898 232.288,124.717 234.747,124.375 238.819 C 123.977 243.558,126.027 246.036,132.470 248.604 C 136.788 250.324,138.281 251.548,138.281 253.365 C 138.281 256.957,131.938 257.649,126.118 254.691 L 123.798 253.512 123.911 256.917 L 124.023 260.322 126.367 261.063 C 134.267 263.561,143.045 260.946,144.490 255.664 C 146.007 250.120,144.016 246.589,138.015 244.183 C 131.483 241.563,130.317 240.583,131.087 238.363 C 131.946 235.886,136.460 235.308,141.546 237.025 L 143.781 237.780 143.668 234.824 L 143.555 231.868 141.797 231.346 C 138.989 230.511,133.733 230.373,131.250 231.069 M183.789 230.985 C 168.580 234.879,168.739 258.331,183.996 261.561 C 195.594 264.017,204.545 255.473,202.757 243.654 C 201.338 234.278,192.912 228.650,183.789 230.985 M225.586 230.992 C 219.630 232.542,217.032 236.560,218.421 242.077 C 219.120 244.853,220.988 246.432,225.909 248.410 C 231.243 250.554,232.031 251.161,232.031 253.125 C 232.031 256.914,225.715 257.735,220.020 254.688 L 217.969 253.591 217.969 257.003 L 217.969 260.416 219.434 260.870 C 229.702 264.056,238.194 260.807,238.604 253.534 C 238.899 248.319,237.280 246.184,231.300 243.900 C 225.425 241.657,223.701 239.921,225.151 237.708 C 226.429 235.757,231.300 235.460,235.544 237.072 L 237.550 237.834 237.368 234.835 L 237.186 231.836 235.487 231.343 C 232.887 230.589,227.826 230.410,225.586 230.992 M252.824 231.048 C 236.818 235.561,238.798 260.073,255.318 261.926 C 265.108 263.024,272.245 256.328,272.261 246.031 C 272.278 235.287,263.041 228.167,252.824 231.048 M70.703 246.289 L 70.703 261.328 74.023 261.328 L 77.344 261.328 77.344 255.664 L 77.344 250.000 79.004 250.003 L 80.664 250.006 83.925 255.642 L 87.187 261.278 91.055 261.401 C 93.183 261.468,94.923 261.481,94.923 261.429 C 94.921 261.247,88.600 250.960,87.793 249.827 C 87.217 249.017,87.117 248.630,87.455 248.518 C 92.819 246.729,94.745 238.013,90.674 233.942 C 88.426 231.693,86.315 231.250,77.859 231.250 L 70.703 231.250 70.703 246.289 M95.313 231.395 C 95.313 231.475,97.510 235.671,100.195 240.720 L 105.078 249.900 105.078 255.614 L 105.078 261.328 108.398 261.328 L 111.719 261.328 111.719 255.711 L 111.719 250.093 116.644 241.160 C 119.353 236.247,121.747 232.007,121.965 231.738 C 122.277 231.354,121.559 231.250,118.594 231.250 L 114.827 231.250 111.727 237.508 L 108.626 243.766 105.620 237.508 L 102.613 231.250 98.963 231.250 C 96.955 231.250,95.313 231.315,95.313 231.395 M147.520 234.082 L 147.579 236.914 151.915 237.025 L 156.250 237.135 156.250 249.232 L 156.250 261.328 159.570 261.328 L 162.891 261.328 162.891 249.219 L 162.891 237.109 167.188 237.109 L 171.484 237.109 171.484 234.180 L 171.484 231.250 159.473 231.250 L 147.461 231.250 147.520 234.082 M276.563 246.289 L 276.563 261.328 286.133 261.328 L 295.703 261.328 295.703 258.594 L 295.703 255.859 289.453 255.859 L 283.203 255.859 283.203 243.555 L 283.203 231.250 279.883 231.250 L 276.563 231.250 276.563 246.289 M304.517 243.848 C 301.966 250.776,299.469 257.544,298.966 258.887 L 298.054 261.328 301.549 261.328 L 305.045 261.328 305.999 258.301 L 306.953 255.273 312.949 255.169 L 318.945 255.065 319.881 258.196 L 320.817 261.328 324.443 261.328 L 328.070 261.328 327.023 258.485 C 326.448 256.922,323.955 250.155,321.484 243.449 L 316.992 231.255 313.073 231.252 L 309.154 231.250 304.517 243.848 M332.422 246.260 L 332.422 261.328 335.742 261.328 L 339.063 261.328 339.063 255.642 L 339.063 249.955 340.673 250.075 L 342.284 250.195 345.459 255.750 L 348.633 261.305 352.473 261.317 L 356.314 261.328 355.543 260.059 C 355.119 259.360,353.369 256.472,351.654 253.640 L 348.536 248.491 349.654 248.028 C 355.637 245.550,355.946 235.238,350.123 232.372 C 348.365 231.506,347.728 231.437,340.332 231.319 L 332.422 231.192 332.422 246.260 M84.339 236.896 C 88.866 239.236,85.727 244.922,79.908 244.922 L 77.344 244.922 77.344 240.625 L 77.344 236.328 80.293 236.328 C 82.108 236.328,83.664 236.546,84.339 236.896 M191.399 237.106 C 195.495 239.195,197.303 245.566,195.311 250.890 C 192.499 258.408,182.183 258.014,179.892 250.301 C 177.199 241.232,184.062 233.363,191.399 237.106 M260.958 237.120 C 268.580 241.008,266.354 255.476,258.028 256.167 C 252.201 256.650,249.023 253.164,249.023 246.289 C 249.023 238.302,254.711 233.933,260.958 237.120 M346.714 237.619 C 349.551 240.919,346.609 244.922,341.347 244.922 L 338.867 244.922 338.867 240.590 L 338.867 236.258 342.319 236.391 C 345.540 236.515,345.834 236.597,346.714 237.619 M315.754 245.605 L 317.136 249.609 312.937 249.609 L 308.737 249.609 310.624 244.043 C 311.662 240.981,312.612 238.213,312.736 237.891 C 312.872 237.534,313.237 238.145,313.667 239.453 C 314.055 240.635,314.995 243.403,315.754 245.605 M239.453 270.557 C 230.578 272.277,226.273 277.834,226.619 287.122 C 227.037 298.319,237.675 304.354,250.195 300.496 L 252.539 299.774 252.734 291.879 L 252.930 283.983 247.168 283.984 L 241.406 283.984 241.406 286.523 L 241.406 289.063 244.141 289.063 L 246.875 289.063 246.875 292.172 L 246.875 295.282 245.215 295.731 C 238.631 297.511,233.398 293.187,233.398 285.967 C 233.398 277.483,240.283 273.522,249.162 276.896 L 251.172 277.659 251.172 274.604 L 251.172 271.549 249.121 271.102 C 246.817 270.599,240.943 270.268,239.453 270.557 M113.281 285.938 L 113.281 301.172 122.675 301.172 L 132.068 301.172 131.952 298.438 L 131.836 295.704 125.879 295.703 L 119.922 295.703 119.922 291.992 L 119.922 288.281 125.000 288.281 L 130.078 288.281 130.078 285.547 L 130.078 282.813 125.000 282.813 L 119.922 282.813 119.922 279.492 L 119.922 276.172 125.586 276.172 L 131.250 276.172 131.250 273.438 L 131.250 270.703 122.266 270.703 L 113.281 270.703 113.281 285.938 M139.063 285.938 L 139.063 301.172 142.200 301.172 L 145.338 301.172 145.228 291.211 C 145.167 285.732,145.205 281.252,145.313 281.254 C 145.420 281.257,146.197 282.268,147.040 283.501 C 147.883 284.734,151.019 289.214,154.009 293.457 L 159.446 301.172 162.536 301.172 L 165.625 301.172 165.625 285.938 L 165.625 270.703 162.305 270.703 L 158.984 270.703 158.984 280.664 L 158.984 290.625 155.702 285.787 C 153.897 283.126,150.811 278.643,148.844 275.826 L 145.269 270.703 142.166 270.703 L 139.063 270.703 139.063 285.938 M173.828 285.938 L 173.828 301.172 183.008 301.172 L 192.188 301.172 192.188 298.438 L 192.188 295.703 186.133 295.703 L 180.078 295.703 180.078 291.992 L 180.078 288.281 185.352 288.281 L 190.625 288.281 190.625 285.547 L 190.625 282.813 185.352 282.813 L 180.078 282.813 180.078 279.492 L 180.078 276.172 185.938 276.172 L 191.797 276.172 191.797 273.438 L 191.797 270.703 182.813 270.703 L 173.828 270.703 173.828 285.938 M199.219 285.896 L 199.219 301.172 202.539 301.172 L 205.859 301.172 205.859 295.508 L 205.859 289.844 207.520 289.859 L 209.180 289.873 212.351 295.425 L 215.523 300.977 219.333 301.089 C 222.357 301.178,223.101 301.095,222.944 300.687 C 222.836 300.404,221.066 297.459,219.011 294.144 L 215.274 288.116 216.342 287.667 C 220.737 285.819,222.555 278.813,219.742 274.563 C 217.767 271.578,215.592 270.943,206.738 270.769 L 199.219 270.620 199.219 285.896 M257.168 272.363 C 257.691 273.276,260.080 277.686,262.478 282.163 L 266.837 290.303 266.719 295.738 L 266.602 301.173 269.824 301.173 L 273.047 301.172 273.047 295.362 L 273.047 289.552 278.125 280.303 C 280.918 275.216,283.203 270.975,283.203 270.879 C 283.203 270.782,281.661 270.703,279.775 270.703 L 276.348 270.703 273.242 276.953 C 271.534 280.391,270.044 283.195,269.932 283.186 C 269.819 283.176,268.408 280.370,266.797 276.949 L 263.867 270.730 260.042 270.717 L 256.217 270.703 257.168 272.363 M211.408 276.188 C 217.053 277.755,214.877 283.950,208.449 284.608 L 205.859 284.874 205.859 280.327 L 205.859 275.781 207.910 275.783 C 209.038 275.785,210.612 275.966,211.408 276.188 " stroke="none" fill="#a86e19" fill-rule="evenodd"></path><path id="path3" d="M199.416 61.523 C 199.255 62.383,198.353 66.942,197.413 71.655 C 196.472 76.368,195.703 80.442,195.703 80.708 C 195.703 81.082,201.689 81.700,202.628 81.423 C 202.740 81.390,200.032 60.886,199.846 60.352 C 199.771 60.137,199.577 60.664,199.416 61.523 M219.344 73.856 C 216.398 79.242,214.065 83.726,214.159 83.821 C 214.532 84.194,221.094 86.261,221.094 86.006 C 221.094 85.484,224.628 65.424,224.839 64.746 C 225.387 62.989,224.316 64.765,219.344 73.856 M240.129 81.184 C 236.740 84.980,233.283 88.825,232.446 89.728 L 230.925 91.370 234.030 93.341 C 235.738 94.425,237.193 95.313,237.265 95.313 C 237.385 95.313,240.298 88.928,244.883 78.613 C 245.957 76.196,246.713 74.233,246.563 74.250 C 246.412 74.267,243.517 77.387,240.129 81.184 M183.594 85.412 C 181.553 85.726,179.742 86.122,179.570 86.293 C 179.290 86.570,196.189 122.958,220.315 174.023 C 225.086 184.121,229.872 194.265,230.951 196.566 L 232.914 200.749 235.695 198.472 C 266.111 173.574,268.504 129.450,240.860 103.211 C 225.928 89.039,204.117 82.259,183.594 85.412 M262.305 91.892 C 248.864 99.706,244.922 102.046,244.922 102.210 C 244.922 102.315,246.008 103.599,247.335 105.063 L 249.747 107.725 251.729 105.529 C 252.819 104.321,256.402 100.385,259.691 96.783 C 262.980 93.181,265.529 90.250,265.355 90.269 C 265.181 90.287,263.809 91.018,262.305 91.892 M273.242 111.726 C 270.664 112.545,265.654 114.054,262.109 115.080 C 258.564 116.105,255.626 116.964,255.580 116.988 C 255.533 117.012,256.252 118.486,257.178 120.264 L 258.861 123.496 268.396 117.173 C 273.639 113.695,278.097 110.694,278.301 110.503 C 278.862 109.978,278.371 110.097,273.242 111.726 M261.903 134.287 C 262.046 134.658,262.365 136.229,262.613 137.779 C 263.050 140.519,263.090 140.590,264.051 140.354 C 265.384 140.026,284.874 134.006,284.995 133.885 C 285.047 133.832,279.814 133.749,273.366 133.701 C 262.403 133.618,261.659 133.656,261.903 134.287 M262.626 154.974 C 262.411 156.858,262.251 158.422,262.270 158.452 C 262.326 158.538,284.515 157.813,285.156 157.704 C 285.479 157.649,280.908 156.323,275.000 154.756 C 269.092 153.190,263.979 151.828,263.638 151.729 C 263.125 151.581,262.951 152.140,262.626 154.974 M258.212 172.556 C 257.525 174.364,257.022 175.896,257.095 175.960 C 257.167 176.024,259.072 176.467,261.328 176.944 C 270.550 178.893,277.590 180.505,278.418 180.859 C 281.378 182.121,278.020 179.931,269.378 174.967 L 259.460 169.269 258.212 172.556 M249.531 188.049 L 247.304 190.999 249.726 192.323 C 251.058 193.051,254.434 194.837,257.227 196.292 C 260.020 197.747,263.447 199.563,264.844 200.328 L 267.383 201.718 264.194 198.222 C 262.440 196.300,258.925 192.560,256.382 189.913 L 251.758 185.099 249.531 188.049 M147.391 233.984 C 147.391 235.381,147.462 235.952,147.548 235.254 C 147.635 234.556,147.635 233.413,147.548 232.715 C 147.462 232.017,147.391 232.588,147.391 233.984 M108.984 261.328 L 106.055 261.578 108.864 261.648 C 110.409 261.687,111.781 261.543,111.914 261.328 C 112.047 261.113,112.101 260.969,112.035 261.008 C 111.968 261.047,110.596 261.191,108.984 261.328 M286.133 261.328 L 276.367 261.544 286.012 261.631 C 292.117 261.687,295.746 261.575,295.898 261.328 C 296.031 261.113,296.086 260.977,296.019 261.025 C 295.953 261.073,291.504 261.209,286.133 261.328 M72.375 261.616 C 73.402 261.696,74.984 261.695,75.891 261.614 C 76.797 261.532,75.957 261.466,74.023 261.467 C 72.090 261.468,71.348 261.535,72.375 261.616 M89.160 261.615 C 90.181 261.696,91.851 261.696,92.871 261.615 C 93.892 261.535,93.057 261.469,91.016 261.469 C 88.975 261.469,88.140 261.535,89.160 261.615 M157.922 261.616 C 158.949 261.696,160.531 261.695,161.438 261.614 C 162.344 261.532,161.504 261.466,159.570 261.467 C 157.637 261.468,156.895 261.535,157.922 261.616 M299.522 261.615 C 300.441 261.697,301.847 261.696,302.647 261.612 C 303.447 261.528,302.695 261.461,300.977 261.462 C 299.258 261.463,298.603 261.532,299.522 261.615 M323.340 261.614 C 324.253 261.696,325.747 261.696,326.660 261.614 C 327.573 261.532,326.826 261.465,325.000 261.465 C 323.174 261.465,322.427 261.532,323.340 261.614 M334.094 261.616 C 335.121 261.696,336.703 261.695,337.609 261.614 C 338.516 261.532,337.676 261.466,335.742 261.467 C 333.809 261.468,333.067 261.535,334.094 261.616 M350.697 261.617 C 351.832 261.696,353.590 261.695,354.603 261.615 C 355.616 261.535,354.688 261.470,352.539 261.471 C 350.391 261.472,349.562 261.537,350.697 261.617 M138.850 285.938 C 138.850 294.424,138.901 297.896,138.964 293.652 C 139.027 289.409,139.027 282.466,138.964 278.223 C 138.901 273.979,138.850 277.451,138.850 285.938 M173.615 285.938 C 173.615 294.424,173.667 297.896,173.730 293.652 C 173.793 289.409,173.793 282.466,173.730 278.223 C 173.667 273.979,173.615 277.451,173.615 285.938 M125.586 276.172 L 119.727 276.399 125.465 276.481 C 128.961 276.531,131.298 276.410,131.445 276.172 C 131.578 275.957,131.632 275.818,131.566 275.863 C 131.500 275.908,128.809 276.047,125.586 276.172 M206.934 276.064 C 207.632 276.150,208.774 276.150,209.473 276.064 C 210.171 275.977,209.600 275.906,208.203 275.906 C 206.807 275.906,206.235 275.977,206.934 276.064 M182.910 276.462 C 184.575 276.535,187.300 276.535,188.965 276.462 C 190.630 276.389,189.268 276.329,185.938 276.329 C 182.607 276.329,181.245 276.389,182.910 276.462 M206.543 284.651 C 207.026 284.744,207.817 284.744,208.301 284.651 C 208.784 284.558,208.389 284.481,207.422 284.481 C 206.455 284.481,206.060 284.558,206.543 284.651 M226.284 286.133 C 226.287 287.207,226.362 287.600,226.452 287.006 C 226.542 286.413,226.540 285.534,226.447 285.053 C 226.354 284.573,226.281 285.059,226.284 286.133 M252.734 292.071 C 252.627 296.411,252.675 299.826,252.841 299.660 C 253.007 299.494,253.094 295.943,253.035 291.769 L 252.928 284.180 252.734 292.071 M121.001 288.558 C 121.487 288.651,122.190 288.647,122.563 288.550 C 122.937 288.452,122.539 288.375,121.680 288.380 C 120.820 288.384,120.515 288.464,121.001 288.558 M185.645 288.551 C 186.021 288.649,186.636 288.649,187.012 288.551 C 187.388 288.452,187.080 288.372,186.328 288.372 C 185.576 288.372,185.269 288.452,185.645 288.551 M188.379 288.551 C 188.755 288.649,189.370 288.649,189.746 288.551 C 190.122 288.452,189.814 288.372,189.063 288.372 C 188.311 288.372,188.003 288.452,188.379 288.551 M266.561 295.313 C 266.561 298.428,266.622 299.702,266.696 298.145 C 266.770 296.587,266.770 294.038,266.696 292.480 C 266.622 290.923,266.561 292.197,266.561 295.313 M123.162 295.603 C 124.837 295.677,127.474 295.676,129.022 295.602 C 130.570 295.528,129.199 295.468,125.977 295.469 C 122.754 295.469,121.488 295.530,123.162 295.603 M182.031 295.576 C 187.263 295.859,192.491 295.874,192.324 295.605 C 192.223 295.444,189.383 295.346,186.012 295.386 C 182.641 295.427,180.850 295.513,182.031 295.576 " stroke="none" fill="#f6a832" fill-rule="evenodd"></path><path id="path4" d="M148.614 103.223 L 147.070 104.883 148.730 103.339 C 150.274 101.903,150.570 101.563,150.275 101.563 C 150.211 101.563,149.464 102.310,148.614 103.223 M161.889 117.676 L 160.742 118.945 162.012 117.798 C 163.195 116.729,163.461 116.406,163.159 116.406 C 163.092 116.406,162.521 116.978,161.889 117.676 M191.895 190.504 C 192.271 190.602,192.886 190.602,193.262 190.504 C 193.638 190.405,193.330 190.325,192.578 190.325 C 191.826 190.325,191.519 190.405,191.895 190.504 M311.035 231.146 C 312.056 231.227,313.726 231.227,314.746 231.146 C 315.767 231.066,314.932 231.000,312.891 231.000 C 310.850 231.000,310.015 231.066,311.035 231.146 M171.575 235.938 C 171.575 236.689,171.655 236.997,171.754 236.621 C 171.852 236.245,171.852 235.630,171.754 235.254 C 171.655 234.878,171.575 235.186,171.575 235.938 M111.874 255.469 C 111.874 258.584,111.935 259.858,112.009 258.301 C 112.083 256.743,112.083 254.194,112.009 252.637 C 111.935 251.079,111.874 252.354,111.874 255.469 M295.824 258.789 C 295.826 260.078,295.899 260.558,295.986 259.856 C 296.073 259.154,296.071 258.100,295.982 257.513 C 295.893 256.926,295.822 257.500,295.824 258.789 M131.378 273.242 C 131.380 274.746,131.451 275.313,131.535 274.503 C 131.620 273.693,131.618 272.462,131.532 271.769 C 131.446 271.075,131.376 271.738,131.378 273.242 M251.303 274.609 C 251.303 276.221,251.372 276.880,251.456 276.074 C 251.541 275.269,251.541 273.950,251.456 273.145 C 251.372 272.339,251.303 272.998,251.303 274.609 M246.616 292.578 C 246.616 294.189,246.685 294.849,246.769 294.043 C 246.853 293.237,246.853 291.919,246.769 291.113 C 246.685 290.308,246.616 290.967,246.616 292.578 M192.313 298.438 C 192.313 299.834,192.383 300.405,192.470 299.707 C 192.557 299.009,192.557 297.866,192.470 297.168 C 192.383 296.470,192.313 297.041,192.313 298.438 M272.822 318.164 C 272.822 322.676,272.879 324.468,272.948 322.147 C 273.017 319.825,273.017 316.134,272.947 313.944 C 272.878 311.753,272.821 313.652,272.822 318.164 M169.629 311.227 C 171.079 311.302,173.452 311.302,174.902 311.227 C 176.353 311.152,175.166 311.091,172.266 311.091 C 169.365 311.091,168.179 311.152,169.629 311.227 M167.350 318.750 C 167.350 322.725,167.408 324.351,167.479 322.363 C 167.549 320.376,167.549 317.124,167.479 315.137 C 167.408 313.149,167.350 314.775,167.350 318.750 M170.810 315.625 C 170.810 316.592,170.886 316.987,170.979 316.504 C 171.072 316.021,171.072 315.229,170.979 314.746 C 170.886 314.263,170.810 314.658,170.810 315.625 M286.093 320.703 C 286.093 323.818,286.153 325.093,286.228 323.535 C 286.302 321.978,286.302 319.429,286.228 317.871 C 286.153 316.313,286.093 317.588,286.093 320.703 M295.802 316.602 C 295.806 317.461,295.886 317.767,295.979 317.281 C 296.073 316.795,296.069 316.092,295.972 315.718 C 295.874 315.345,295.797 315.742,295.802 316.602 M297.811 320.703 C 297.811 323.818,297.872 325.093,297.946 323.535 C 298.020 321.978,298.020 319.429,297.946 317.871 C 297.872 316.313,297.811 317.588,297.811 320.703 M278.622 317.188 C 278.622 318.154,278.698 318.550,278.791 318.066 C 278.884 317.583,278.884 316.792,278.791 316.309 C 278.698 315.825,278.622 316.221,278.622 317.188 M58.692 318.555 C 58.697 319.414,58.777 319.720,58.870 319.234 C 58.963 318.748,58.960 318.045,58.862 317.671 C 58.764 317.298,58.688 317.695,58.692 318.555 M72.018 321.289 C 72.019 323.438,72.084 324.267,72.163 323.131 C 72.243 321.996,72.242 320.238,72.162 319.225 C 72.081 318.212,72.017 319.141,72.018 321.289 M100.091 318.750 C 100.091 319.502,100.171 319.810,100.269 319.434 C 100.368 319.058,100.368 318.442,100.269 318.066 C 100.171 317.690,100.091 317.998,100.091 318.750 M107.911 318.945 C 107.915 319.805,107.995 320.110,108.089 319.624 C 108.182 319.138,108.179 318.435,108.081 318.062 C 107.983 317.688,107.907 318.086,107.911 318.945 M176.263 318.750 C 176.263 319.502,176.343 319.810,176.441 319.434 C 176.539 319.058,176.539 318.442,176.441 318.066 C 176.343 317.690,176.263 317.998,176.263 318.750 M220.434 320.117 C 220.436 321.406,220.509 321.887,220.596 321.184 C 220.683 320.482,220.681 319.428,220.592 318.841 C 220.502 318.254,220.431 318.828,220.434 320.117 M327.488 321.875 C 327.488 324.131,327.553 325.054,327.632 323.926 C 327.711 322.798,327.711 320.952,327.632 319.824 C 327.553 318.696,327.488 319.619,327.488 321.875 M155.611 322.461 C 155.612 324.609,155.678 325.438,155.757 324.303 C 155.836 323.168,155.836 321.410,155.755 320.397 C 155.675 319.384,155.610 320.313,155.611 322.461 M182.951 322.852 C 182.950 324.785,183.016 325.625,183.098 324.719 C 183.180 323.812,183.181 322.230,183.100 321.203 C 183.019 320.176,182.952 320.918,182.951 322.852 M303.216 320.703 C 303.216 321.455,303.296 321.763,303.394 321.387 C 303.493 321.011,303.493 320.396,303.394 320.020 C 303.296 319.644,303.216 319.951,303.216 320.703 M170.815 321.680 C 170.818 322.754,170.894 323.147,170.983 322.553 C 171.073 321.959,171.071 321.081,170.978 320.600 C 170.885 320.120,170.812 320.605,170.815 321.680 M207.946 322.852 C 207.948 324.570,208.017 325.225,208.099 324.306 C 208.182 323.387,208.180 321.981,208.096 321.181 C 208.013 320.381,207.945 321.133,207.946 322.852 M110.263 321.875 C 110.263 322.842,110.339 323.237,110.432 322.754 C 110.525 322.271,110.525 321.479,110.432 320.996 C 110.339 320.513,110.263 320.908,110.263 321.875 M79.406 321.772 C 80.433 321.853,82.015 321.852,82.922 321.770 C 83.829 321.688,82.988 321.622,81.055 321.623 C 79.121 321.624,78.379 321.691,79.406 321.772 M129.406 321.772 C 130.433 321.853,132.015 321.852,132.922 321.770 C 133.829 321.688,132.988 321.622,131.055 321.623 C 129.121 321.624,128.379 321.691,129.406 321.772 M141.113 321.771 C 142.134 321.852,143.804 321.852,144.824 321.771 C 145.845 321.691,145.010 321.625,142.969 321.625 C 140.928 321.625,140.093 321.691,141.113 321.771 M197.181 321.773 C 198.316 321.852,200.074 321.851,201.087 321.771 C 202.101 321.691,201.172 321.626,199.023 321.627 C 196.875 321.628,196.046 321.694,197.181 321.773 M332.910 324.097 C 333.286 324.196,333.901 324.196,334.277 324.097 C 334.653 323.999,334.346 323.919,333.594 323.919 C 332.842 323.919,332.534 323.999,332.910 324.097 M213.380 329.102 C 213.384 329.961,213.464 330.267,213.558 329.781 C 213.651 329.295,213.647 328.592,213.550 328.218 C 213.452 327.845,213.375 328.242,213.380 329.102 M226.172 329.664 C 226.172 330.296,226.311 330.899,226.481 331.004 C 226.651 331.109,226.719 330.592,226.633 329.855 C 226.442 328.214,226.172 328.102,226.172 329.664 " stroke="none" fill="#9ac0e2" fill-rule="evenodd"></path></g></svg>